# File created by Blade
# Date/Time:  Tue Jan 27 19:00:46 2015
#---------------------------------------------------------
:version 1.10
:name HOM
:units
  mass 1.0
  length 1.000000
  angle deg
:documentation
     Acclaim Skeleton File
:root
   axis xyz
   order TX TY TZ RX RY RZ
   position 0.000000 0.000000 0.000000
   orientation 0 0 0
:bonedata
   begin
      id 1
      name Spine_dum
      direction 0.000000 1.000000 0.000000
      length 5.195262
      axis 0.0 0.0 0.0 xyz
   end
   begin
      id 2
      name LeftUpLeg_dum
      direction 1.000000 0.000000 0.000000
      length 3.351363
      axis 0.0 0.0 0.0 xyz
   end
   begin
      id 3
      name RightUpLeg_dum
      direction -1.000000 0.000000 0.000000
      length 3.351363
      axis 0.0 0.0 0.0 xyz
   end
   begin
      id 4
      name Spine
      direction 0.000000 1.000000 0.000000
      length 0.000000
      axis 0.0 0.0 0.0 xyz
      dof rx ry rz
   end
   begin
      id 5
      name Spine_dum1
      direction 0.000000 1.000000 0.000000
      length 15.653875
      axis 0.0 0.0 0.0 xyz
   end
   begin
      id 6
      name Spine_dum2
      direction 0.000000 1.000000 0.000000
      length 10.329768
      axis 0.0 0.0 0.0 xyz
   end
   begin
      id 7
      name Spine_dum3
      direction 0.000000 1.000000 0.000000
      length 10.329768
      axis 0.0 0.0 0.0 xyz
   end
   begin
      id 8
      name Head
      direction 0.000000 1.000000 0.000000
      length 4.527550
      axis 0.0 0.0 0.0 xyz
      dof rx ry rz
   end
   begin
      id 9
      name LeftShoulder
      direction 1.000000 0.000000 0.000000
      length 6.996006
      axis 0.0 0.0 -90.0 xyz
      dof rx ry rz
   end
   begin
      id 10
      name LeftArm
      direction 1.000000 0.000000 0.000000
      length 10.209302
      axis 0.0 0.0 -90.0 xyz
      dof rx ry rz
   end
   begin
      id 11
      name LeftForeArm
      direction 1.000000 0.000000 0.000000
      length 8.563163
      axis 0.0 0.0 -90.0 xyz
      dof ry rz rx
   end
   begin
      id 12
      name LeftHand
      direction 0.000000 0.000000 0.000000
      length 0.000000
      axis 0.0 0.0 -90.0 xyz
      dof rx ry rz
   end
   begin
      id 13
      name LeftHand_dum1
      direction 0.000000 0.000000 0.000000
      length 0.000000
      axis 0.0 0.0 -90.0 xyz
   end
   begin
      id 14
      name LeftHand_dum2
      direction 1.000000 0.000000 0.000000
      length 3.937000
      axis 0.0 0.0 -90.0 xyz
   end
   begin
      id 15
      name LeftHandThumb1
      direction 0.000000 0.000000 1.000000
      length 3.937000
      axis 0.0 0.0 -90.0 xyz
      dof rx rz ry
   end
   begin
      id 16
      name RightShoulder
      direction -1.000000 0.000000 0.000000
      length 6.996006
      axis 0.0 0.0 90.0 xyz
      dof rx ry rz
   end
   begin
      id 17
      name RightArm
      direction -1.000000 0.000000 0.000000
      length 10.209302
      axis 0.0 0.0 90.0 xyz
      dof rx ry rz
   end
   begin
      id 18
      name RightForeArm
      direction -1.000000 0.000000 0.000000
      length 8.563163
      axis 0.0 0.0 90.0 xyz
      dof ry rz rx
   end
   begin
      id 19
      name RightHand
      direction 0.000000 0.000000 0.000000
      length 0.000000
      axis 0.0 0.0 90.0 xyz
      dof rx ry rz
   end
   begin
      id 20
      name RightHand_dum1
      direction 0.000000 0.000000 0.000000
      length 0.000000
      axis 0.0 0.0 90.0 xyz
   end
   begin
      id 21
      name RightHand_dum2
      direction -1.000000 0.000000 0.000000
      length 3.937000
      axis 0.0 0.0 90.0 xyz
   end
   begin
      id 22
      name RightHandThumb1
      direction 0.000000 0.000000 1.000000
      length 3.937000
      axis 0.0 0.0 90.0 xyz
      dof rx rz ry
   end
   begin
      id 23
      name LeftUpLeg
      direction 0.000000 -1.000000 0.000000
      length 16.346831
      axis 0.0 0.0 0.0 xyz
      dof rx ry rz
   end
   begin
      id 24
      name LeftLeg
      direction 0.000000 -1.000000 0.000000
      length 13.959795
      axis 0.0 0.0 0.0 xyz
      dof rx ry rz
   end
   begin
      id 25
      name LeftFoot
      direction 0.000000 -0.258819 0.965926
      length 5.165550
      axis 15.0 0.0 0.0 xyz
      dof rx ry rz
   end
   begin
      id 26
      name LeftToeBase
      direction 0.000000 0.000000 1.000000
      length 2.952750
      axis 0.0 0.0 0.0 xyz
      dof rx ry rz
   end
   begin
      id 27
      name RightUpLeg
      direction 0.000000 -1.000000 0.000000
      length 16.346831
      axis 0.0 0.0 0.0 xyz
      dof rx ry rz
   end
   begin
      id 28
      name RightLeg
      direction 0.000000 -1.000000 0.000000
      length 13.959795
      axis 0.0 0.0 0.0 xyz
      dof rx ry rz
   end
   begin
      id 29
      name RightFoot
      direction 0.000000 -0.258819 0.965926
      length 5.165550
      axis 15.0 0.0 0.0 xyz
      dof rx ry rz
   end
   begin
      id 30
      name RightToeBase
      direction 0.000000 0.000000 1.000000
      length 2.952750
      axis 0.0 0.0 0.0 xyz
      dof rx ry rz
   end
:hierarchy
   begin
      root Spine_dum LeftUpLeg_dum RightUpLeg_dum
      Spine_dum Spine
      LeftUpLeg_dum LeftUpLeg
      RightUpLeg_dum RightUpLeg
      Spine Spine_dum1 Spine_dum2 Spine_dum3
      Spine_dum1 Head
      Spine_dum2 LeftShoulder
      Spine_dum3 RightShoulder
      LeftShoulder LeftArm
      LeftArm LeftForeArm
      LeftForeArm LeftHand
      LeftHand LeftHand_dum1 LeftHand_dum2
      LeftHand_dum1 LeftHandThumb1
      RightShoulder RightArm
      RightArm RightForeArm
      RightForeArm RightHand
      RightHand RightHand_dum1 RightHand_dum2
      RightHand_dum1 RightHandThumb1
      LeftUpLeg LeftLeg
      LeftLeg LeftFoot
      LeftFoot LeftToeBase
      RightUpLeg RightLeg
      RightLeg RightFoot
      RightFoot RightToeBase
   end

# File created by Blade
# Date/Time:  Tue Jan 27 19:00:36 2015
# Frame Rate: 120.000 fps
#------------------------------------------------------
:FULLY-SPECIFIED
:DEGREES
1066
root -1.526059 31.608397 -4.443540 2.989730 13.440696 -1.789999
Spine -1.260453 -7.984074 -2.890574
Head 20.819482 -0.774189 4.424397
LeftShoulder -16.509196 16.823129 14.285155
LeftArm 8.406066 -45.043387 -68.383319
LeftForeArm -14.135296 -0.000000 79.210634
LeftHand -8.395254 -0.000000 22.949867
LeftHandThumb1 -26.253704 0.000000 33.147579
RightShoulder -12.591387 -4.088975 -10.159817
RightArm 3.976823 -33.320627 87.918914
RightForeArm -23.821474 -0.000000 24.284758
RightHand -15.200421 0.000000 7.680619
RightHandThumb1 -24.326973 -0.000000 -32.862282
LeftUpLeg -4.574783 -4.293361 -7.708395
LeftLeg 16.382097 -0.000000 -0.000000
LeftFoot -25.768049 19.592976 -15.773984
LeftToeBase 11.502572 -0.000000 -0.000000
RightUpLeg -38.028588 -16.595754 2.473301
RightLeg 91.508593 -0.000000 -0.000000
RightFoot -13.214439 1.226928 25.512393
RightToeBase 4.450551 -0.000000 -0.000000
1067
root -1.521569 31.604056 -4.454438 2.970398 12.945728 -1.765805
Spine -1.185325 -7.883083 -2.930635
Head 20.778572 -0.771090 4.284800
LeftShoulder -16.531469 16.928518 14.190147
LeftArm 7.888312 -45.546675 -68.101341
LeftForeArm -14.275706 -0.000000 79.375872
LeftHand -8.365122 -0.000000 22.856103
LeftHandThumb1 -26.253704 0.000000 33.147579
RightShoulder -12.611276 -4.193999 -10.148985
RightArm 4.028750 -33.273906 87.827160
RightForeArm -23.622477 -0.000000 24.171723
RightHand -15.213215 0.000000 7.751646
RightHandThumb1 -24.326973 -0.000000 -32.862282
LeftUpLeg -4.558390 -4.027209 -7.776883
LeftLeg 16.359344 -0.000000 -0.000000
LeftFoot -25.811642 19.771989 -15.721518
LeftToeBase 11.479201 -0.000000 -0.000000
RightUpLeg -38.152684 -16.973636 2.429903
RightLeg 91.544431 -0.000000 -0.000000
RightFoot -13.004236 1.664047 25.290042
RightToeBase 4.448033 -0.000000 -0.000000
1068
root -1.519317 31.599019 -4.467156 2.943094 12.453877 -1.749389
Spine -1.098397 -7.798475 -2.968721
Head 20.743745 -0.766849 4.164079
LeftShoulder -16.593464 16.999721 14.107197
LeftArm 7.424401 -46.046453 -67.890325
LeftForeArm -14.365318 -0.000000 79.537360
LeftHand -8.361740 0.000000 22.832220
LeftHandThumb1 -26.253704 0.000000 33.147579
RightShoulder -12.585584 -4.243209 -10.162814
RightArm 4.004784 -33.234205 87.790555
RightForeArm -23.397577 -0.000000 24.025303
RightHand -15.097713 -0.000000 7.823057
RightHandThumb1 -24.326973 -0.000000 -32.862282
LeftUpLeg -4.542105 -3.797575 -7.836826
LeftLeg 16.339992 -0.000000 -0.000000
LeftFoot -25.868139 19.982078 -15.683155
LeftToeBase 11.497771 -0.000000 -0.000000
RightUpLeg -38.261108 -17.277567 2.362701
RightLeg 91.589279 -0.000000 -0.000000
RightFoot -12.778594 2.114475 25.046894
RightToeBase 4.469621 -0.000000 -0.000000
1069
root -1.516274 31.595423 -4.476369 2.883971 11.941174 -1.749443
Spine -0.990297 -7.683879 -2.987399
Head 20.737567 -0.765922 4.021601
LeftShoulder -16.664427 17.131852 13.970620
LeftArm 7.047897 -46.562375 -67.726535
LeftForeArm -14.458677 -0.000000 79.727220
LeftHand -8.425676 -0.000000 22.933288
LeftHandThumb1 -26.253704 0.000000 33.147579
RightShoulder -12.583335 -4.289581 -10.167026
RightArm 4.008851 -33.311354 87.702812
RightForeArm -23.078035 -0.000000 23.885627
RightHand -15.040303 0.000000 7.875466
RightHandThumb1 -24.326973 -0.000000 -32.862282
LeftUpLeg -4.479156 -3.590056 -7.883296
LeftLeg 16.293526 -0.000000 -0.000000
LeftFoot -25.936843 20.207761 -15.690963
LeftToeBase 11.488123 -0.000000 -0.000000
RightUpLeg -38.322779 -17.512995 2.281143
RightLeg 91.629004 -0.000000 -0.000000
RightFoot -12.522826 2.499218 24.782449
RightToeBase 4.340437 -0.000000 -0.000000
1070
root -1.510217 31.589974 -4.488403 2.841610 11.392442 -1.732016
Spine -0.898552 -7.523731 -3.014721
Head 20.748362 -0.805141 3.825603
LeftShoulder -16.734444 17.208376 13.852995
LeftArm 6.672273 -47.025519 -67.568069
LeftForeArm -14.378008 -0.000000 79.906639
LeftHand -8.578023 -0.000000 22.989332
LeftHandThumb1 -26.253704 0.000000 33.147579
RightShoulder -12.580867 -4.327590 -10.200923
RightArm 3.971930 -33.232452 87.676339
RightForeArm -22.936593 0.000000 23.764556
RightHand -15.018716 -0.000000 8.122586
RightHandThumb1 -24.326973 -0.000000 -32.862282
LeftUpLeg -4.447535 -3.352339 -7.959163
LeftLeg 16.271513 -0.000000 -0.000000
LeftFoot -26.021951 20.469035 -15.707817
LeftToeBase 11.480515 -0.000000 -0.000000
RightUpLeg -38.392670 -17.630234 2.152692
RightLeg 91.678576 -0.000000 -0.000000
RightFoot -12.292214 2.820586 24.616564
RightToeBase 4.076344 -0.000000 -0.000000
1071
root -1.505112 31.584800 -4.499437 2.801612 10.856082 -1.720986
Spine -0.813497 -7.357776 -3.029221
Head 20.769844 -0.770206 3.735047
LeftShoulder -16.799140 17.308350 13.747341
LeftArm 6.323134 -47.482376 -67.465837
LeftForeArm -14.411442 0.000000 80.095385
LeftHand -8.620317 -0.000000 22.934943
LeftHandThumb1 -26.253704 0.000000 33.147579
RightShoulder -12.608566 -4.380850 -10.233970
RightArm 3.974012 -33.291446 87.610697
RightForeArm -22.815741 -0.000000 23.631897
RightHand -14.873543 -0.000000 8.390687
RightHandThumb1 -24.326973 -0.000000 -32.862282
LeftUpLeg -4.435303 -3.116547 -8.023676
LeftLeg 16.281910 -0.000000 -0.000000
LeftFoot -26.114541 20.697729 -15.752844
LeftToeBase 11.481182 -0.000000 -0.000000
RightUpLeg -38.463220 -17.711196 2.036386
RightLeg 91.712442 -0.000000 -0.000000
RightFoot -12.187392 3.008807 25.001775
RightToeBase 4.331012 -0.000000 -0.000000
1072
root -1.506787 31.580028 -4.513322 2.779694 10.322271 -1.728740
Spine -0.746868 -7.214778 -3.042655
Head 20.823202 -0.768710 3.634152
LeftShoulder -16.909155 17.468572 13.635087
LeftArm 6.086112 -47.926831 -67.445139
LeftForeArm -14.478237 0.000000 80.281501
LeftHand -8.582952 -0.000000 22.869684
LeftHandThumb1 -26.253704 0.000000 33.147579
RightShoulder -12.568717 -4.436527 -10.248837
RightArm 3.929359 -33.174430 87.605579
RightForeArm -22.974485 0.000000 23.544928
RightHand -14.804954 -0.000000 8.657123
RightHandThumb1 -24.326973 -0.000000 -32.862282
LeftUpLeg -4.439165 -2.941940 -8.055391
LeftLeg 16.267167 -0.000000 -0.000000
LeftFoot -26.239637 20.912536 -15.904128
LeftToeBase 11.438798 -0.000000 -0.000000
RightUpLeg -38.556347 -17.706729 1.945241
RightLeg 91.767847 -0.000000 -0.000000
RightFoot -12.120068 3.061767 25.185729
RightToeBase 4.473194 -0.000000 -0.000000
1073
root -1.496377 31.575011 -4.522590 2.708336 9.798146 -1.721023
Spine -0.642023 -7.069250 -3.036488
Head 20.890301 -0.765785 3.489661
LeftShoulder -17.030184 17.637463 13.502552
LeftArm 5.904058 -48.332213 -67.506995
LeftForeArm -14.527525 -0.000000 80.484723
LeftHand -8.540592 -0.000000 22.868948
LeftHandThumb1 -26.253704 0.000000 33.147579
RightShoulder -12.559025 -4.489248 -10.287942
RightArm 3.938128 -33.283855 87.545660
RightForeArm -22.908753 -0.000000 23.383485
RightHand -14.754843 -0.000000 8.712674
RightHandThumb1 -24.326973 -0.000000 -32.862282
LeftUpLeg -4.362722 -2.914424 -8.140569
LeftLeg 16.207071 -0.000000 -0.000000
LeftFoot -26.378984 21.358421 -16.005193
LeftToeBase 11.499520 -0.000000 -0.000000
RightUpLeg -38.566428 -17.691217 1.781440
RightLeg 91.827300 -0.000000 -0.000000
RightFoot -12.126731 2.964758 25.353032
RightToeBase 4.513964 -0.000000 -0.000000
1074
root -1.498432 31.570160 -4.535057 2.666019 9.286327 -1.751128
Spine -0.558019 -6.917197 -3.029610
Head 20.950750 -0.815669 3.331047
LeftShoulder -17.165648 17.772890 13.427570
LeftArm 5.757426 -48.704739 -67.600864
LeftForeArm -14.560321 -0.000000 80.675912
LeftHand -8.464303 -0.000000 22.910836
LeftHandThumb1 -26.253704 0.000000 33.147579
RightShoulder -12.550819 -4.528715 -10.296171
RightArm 3.912492 -33.376250 87.520697
RightForeArm -23.009547 -0.000000 23.242299
RightHand -14.695233 -0.000000 8.883414
RightHandThumb1 -24.326973 -0.000000 -32.862282
LeftUpLeg -4.371796 -2.818117 -8.163879
LeftLeg 16.239150 -0.000000 -0.000000
LeftFoot -26.579808 21.675515 -16.241305
LeftToeBase 11.439555 -0.000000 -0.000000
RightUpLeg -38.617463 -17.569735 1.706605
RightLeg 91.876676 -0.000000 -0.000000
RightFoot -12.208436 2.713056 25.498071
RightToeBase 4.396180 -0.000000 -0.000000
1075
root -1.499435 31.566981 -4.541741 2.589833 8.794652 -1.805785
Spine -0.464937 -6.744732 -2.979424
Head 21.053555 -0.846424 3.254255
LeftShoulder -17.280572 17.879220 13.330350
LeftArm 5.647578 -49.048257 -67.705610
LeftForeArm -14.550385 -0.000000 80.862904
LeftHand -8.459574 0.000000 22.908296
LeftHandThumb1 -26.253704 0.000000 33.147579
RightShoulder -12.516875 -4.594459 -10.305941
RightArm 3.866625 -33.476733 87.496277
RightForeArm -23.107423 -0.000000 23.104372
RightHand -14.748246 -0.000000 8.691860
RightHandThumb1 -24.326973 -0.000000 -32.862282
LeftUpLeg -4.314257 -2.846141 -8.158415
LeftLeg 16.218139 -0.000000 -0.000000
LeftFoot -26.752453 22.078345 -16.419049
LeftToeBase 11.453533 -0.000000 -0.000000
RightUpLeg -38.603227 -17.448440 1.622405
RightLeg 91.903909 -0.000000 -0.000000
RightFoot -12.329482 2.420939 25.555830
RightToeBase 4.439865 -0.000000 -0.000000
1076
root -1.500601 31.564707 -4.551976 2.547408 8.333965 -1.853570
Spine -0.403976 -6.584765 -2.925617
Head 21.180150 -0.914360 3.134257
LeftShoulder -17.402996 18.051429 13.203096
LeftArm 5.682101 -49.383122 -67.917191
LeftForeArm -14.510953 -0.000000 81.063238
LeftHand -8.481332 -0.000000 22.904150
LeftHandThumb1 -26.253704 0.000000 33.147579
RightShoulder -12.528201 -4.685859 -10.309538
RightArm 3.867907 -33.532039 87.451603
RightForeArm -23.268708 -0.000000 22.948451
RightHand -14.699458 -0.000000 9.077878
RightHandThumb1 -24.326973 -0.000000 -32.862282
LeftUpLeg -4.316526 -2.876008 -8.154851
LeftLeg 16.244186 -0.000000 -0.000000
LeftFoot -26.930921 22.439633 -16.621759
LeftToeBase 11.422448 -0.000000 -0.000000
RightUpLeg -38.623426 -17.321557 1.552876
RightLeg 91.926207 -0.000000 -0.000000
RightFoot -12.541822 2.032566 25.709425
RightToeBase 4.780080 -0.000000 -0.000000
1077
root -1.503984 31.562202 -4.561089 2.484016 7.917396 -1.895392
Spine -0.311638 -6.460147 -2.896748
Head 21.296085 -1.046564 3.018275
LeftShoulder -17.504077 18.110572 13.147863
LeftArm 5.569141 -49.657397 -68.046355
LeftForeArm -14.502399 -0.000000 81.272226
LeftHand -8.422392 -0.000000 22.929796
LeftHandThumb1 -26.253704 0.000000 33.147579
RightShoulder -12.518760 -4.786228 -10.297367
RightArm 3.874257 -33.643598 87.428665
RightForeArm -23.230767 -0.000000 22.773172
RightHand -14.851449 -0.000000 8.928052
RightHandThumb1 -24.326973 -0.000000 -32.862282
LeftUpLeg -4.304984 -2.933725 -8.154147
LeftLeg 16.296835 -0.000000 -0.000000
LeftFoot -27.128756 22.791068 -16.847130
LeftToeBase 11.443669 -0.000000 -0.000000
RightUpLeg -38.602190 -17.138386 1.466435
RightLeg 91.956711 -0.000000 -0.000000
RightFoot -12.732611 1.564605 25.606323
RightToeBase 4.417919 -0.000000 -0.000000
1078
root -1.508957 31.560732 -4.571390 2.451127 7.525376 -1.954089
Spine -0.270954 -6.351854 -2.843207
Head 21.457794 -1.102768 2.890946
LeftShoulder -17.586744 18.206542 13.104291
LeftArm 5.497033 -49.906469 -68.221694
LeftForeArm -14.438494 -0.000000 81.480899
LeftHand -8.438424 0.000000 22.918711
LeftHandThumb1 -26.253704 0.000000 33.147579
RightShoulder -12.477764 -4.842929 -10.278678
RightArm 3.774051 -33.642646 87.436527
RightForeArm -23.172084 -0.000000 22.623567
RightHand -14.774502 0.000000 8.981867
RightHandThumb1 -24.326973 -0.000000 -32.862282
LeftUpLeg -4.339337 -2.949051 -8.123835
LeftLeg 16.370982 -0.000000 -0.000000
LeftFoot -27.291790 23.084043 -17.013481
LeftToeBase 11.413074 -0.000000 -0.000000
RightUpLeg -38.593986 -16.943127 1.407257
RightLeg 91.958983 -0.000000 -0.000000
RightFoot -12.983583 1.201336 25.797341
RightToeBase 4.786861 -0.000000 -0.000000
